<?xml version="1.0" encoding="UTF-8"?>
<svg xmlns="http://www.w3.org/2000/svg" xmlns:xlink="http://www.w3.org/1999/xlink" viewBox="0 0 48 48" version="1.1" width="100px" height="100px">
<g id="surface1">
<path style=" fill:#455A64;" d="M 40.300781 15.699219 C 40.898438 14 41.5 10.699219 39.898438 7 C 35.398438 7 31.601563 10.199219 31 10.800781 C 28.800781 10.300781 26.398438 10.101563 24 10.101563 C 21.5 10.101563 19.101563 10.398438 16.800781 10.898438 C 13.699219 7.699219 9.601563 7 8 7 C 8 7 7.101563 8.800781 7.101563 12 C 7.101563 14 7.601563 15.199219 7.898438 15.800781 C 5.5 18.300781 4 21.699219 4 26.101563 C 4 37.300781 11.101563 41.101563 24 41.101563 C 36.898438 41.101563 44 37.300781 44 26.101563 C 44 21.5 42.601563 18.101563 40.300781 15.699219 Z "/>
<path style=" fill:#FFCCBC;" d="M 24 39 C 15.800781 39 9 37.601563 9 30 C 9 27.101563 10.601563 25.5 11.699219 24.5 C 14.199219 22.300781 18.398438 23.300781 24 23.300781 C 28.101563 23.300781 31.601563 22.601563 34.398438 23.5 C 37.199219 24.398438 39 27 39 29.800781 C 39 37.699219 35 39 24 39 Z "/>
<path style=" fill:#D84315;" d="M 25 34 C 25 34.601563 24.601563 35 24 35 C 23.398438 35 23 34.601563 23 34 C 23 33.398438 23.398438 33 24 33 C 24.601563 33 25 33.398438 25 34 Z M 26.5 36.5 C 26.699219 36.300781 26.699219 36 26.5 35.800781 C 26.300781 35.601563 26 35.601563 25.800781 35.800781 C 24.898438 36.699219 23.199219 36.699219 22.300781 35.800781 C 22.101563 35.601563 21.800781 35.601563 21.601563 35.800781 C 21.398438 36 21.398438 36.300781 21.601563 36.5 C 22.300781 37.199219 23.101563 37.5 24.101563 37.5 C 25.101563 37.5 25.800781 37.101563 26.5 36.5 Z "/>
<path style=" fill:#FFFFFF;" d="M 19 29.5 C 19 32 17.699219 34 16 34 C 14.300781 34 13 32 13 29.5 C 13 27 14.300781 25 16 25 C 17.699219 25 19 27 19 29.5 Z M 32 25 C 30.300781 25 29 27 29 29.5 C 29 32 30.300781 34 32 34 C 33.699219 34 35 32 35 29.5 C 35 27 33.699219 25 32 25 Z "/>
<path style=" fill:#6D4C41;" d="M 34 30 C 34 31.699219 33.101563 33 32 33 C 30.898438 33 30 31.699219 30 30 C 30 29.800781 30 29.5 30.101563 29.300781 C 30.199219 29.699219 30.601563 30 31 30 C 31.601563 30 32 29.601563 32 29 C 32 28.398438 31.601563 28 31 28 C 30.800781 28 30.601563 28.101563 30.398438 28.199219 C 30.800781 27.5 31.300781 27 32 27 C 33.101563 27 34 28.300781 34 30 Z M 16 27 C 15.300781 27 14.800781 27.5 14.398438 28.199219 C 14.601563 28.101563 14.800781 28 15 28 C 15.601563 28 16 28.398438 16 29 C 16 29.601563 15.601563 30 15 30 C 14.601563 30 14.199219 29.699219 14.101563 29.300781 C 14.101563 29.5 14 29.800781 14 30 C 14 31.699219 14.898438 33 16 33 C 17.101563 33 18 31.699219 18 30 C 18 28.300781 17.101563 27 16 27 Z "/>
</g>
</svg>
